<svg xmlns="http://www.w3.org/2000/svg" xmlns:xlink="http://www.w3.org/1999/xlink" width="623.446" height="518.38" viewBox="0 0 623.446 518.38">
  <defs>
    <linearGradient id="linear-gradient" x1="0.5" x2="0.5" y2="1" gradientUnits="objectBoundingBox">
      <stop offset="0" stop-color="#a7e6fc"/>
      <stop offset="1" stop-color="#d8f5ff" stop-opacity="0.22"/>
    </linearGradient>
    <linearGradient id="linear-gradient-2" x1="-0.22" y1="0.816" x2="0.595" y2="0.449" gradientUnits="objectBoundingBox">
      <stop offset="0" stop-color="#2642d3"/>
      <stop offset="1" stop-color="#006bdc" stop-opacity="0.365"/>
    </linearGradient>
    <linearGradient id="linear-gradient-3" x1="0.5" x2="0.5" y2="1" gradientUnits="objectBoundingBox">
      <stop offset="0" stop-color="#006bdc"/>
      <stop offset="1" stop-color="#fff" stop-opacity="0.122"/>
    </linearGradient>
    <filter id="Ellipse_9" x="380.897" y="52.539" width="36" height="36" filterUnits="userSpaceOnUse">
      <feOffset dy="3" input="SourceAlpha"/>
      <feGaussianBlur stdDeviation="3" result="blur"/>
      <feFlood flood-opacity="0.271"/>
      <feComposite operator="in" in2="blur"/>
      <feComposite in="SourceGraphic"/>
    </filter>
    <filter id="Ellipse_148" x="457.897" y="101.539" width="34" height="34" filterUnits="userSpaceOnUse">
      <feOffset dy="5" input="SourceAlpha"/>
      <feGaussianBlur stdDeviation="4" result="blur-2"/>
      <feFlood flood-opacity="0.271"/>
      <feComposite operator="in" in2="blur-2"/>
      <feComposite in="SourceGraphic"/>
    </filter>
    <filter id="Ellipse_149" x="164.897" y="338.539" width="40" height="40" filterUnits="userSpaceOnUse">
      <feOffset dy="3" input="SourceAlpha"/>
      <feGaussianBlur stdDeviation="5" result="blur-3"/>
      <feFlood flood-opacity="0.271"/>
      <feComposite operator="in" in2="blur-3"/>
      <feComposite in="SourceGraphic"/>
    </filter>
    <filter id="Ellipse_10" x="508.897" y="321.539" width="48" height="48" filterUnits="userSpaceOnUse">
      <feOffset dy="3" input="SourceAlpha"/>
      <feGaussianBlur stdDeviation="5" result="blur-4"/>
      <feFlood flood-opacity="0.271"/>
      <feComposite operator="in" in2="blur-4"/>
      <feComposite in="SourceGraphic"/>
    </filter>
    <filter id="Path_5179" x="68.243" y="0" width="428.544" height="425.877" filterUnits="userSpaceOnUse">
      <feOffset dy="3" input="SourceAlpha"/>
      <feGaussianBlur stdDeviation="10" result="blur-5"/>
      <feFlood flood-opacity="0.271"/>
      <feComposite operator="in" in2="blur-5"/>
      <feComposite in="SourceGraphic"/>
    </filter>
    <filter id="Ellipse_8" x="62.897" y="262.539" width="126" height="126" filterUnits="userSpaceOnUse">
      <feOffset dy="3" input="SourceAlpha"/>
      <feGaussianBlur stdDeviation="10" result="blur-6"/>
      <feFlood flood-opacity="0.271"/>
      <feComposite operator="in" in2="blur-6"/>
      <feComposite in="SourceGraphic"/>
    </filter>
    <filter id="Path_2304" x="58.897" y="285.539" width="22" height="22" filterUnits="userSpaceOnUse">
      <feOffset dy="3" input="SourceAlpha"/>
      <feGaussianBlur stdDeviation="2" result="blur-7"/>
      <feFlood flood-opacity="0.271"/>
      <feComposite operator="in" in2="blur-7"/>
      <feComposite in="SourceGraphic"/>
    </filter>
    <filter id="Ellipse_151" x="108.897" y="247.539" width="36" height="37" filterUnits="userSpaceOnUse">
      <feOffset dy="10" input="SourceAlpha"/>
      <feGaussianBlur stdDeviation="3" result="blur-8"/>
      <feFlood flood-opacity="0.271"/>
      <feComposite operator="in" in2="blur-8"/>
      <feComposite in="SourceGraphic"/>
    </filter>
    <filter id="Ellipse_7" x="342.897" y="61.539" width="98" height="98" filterUnits="userSpaceOnUse">
      <feOffset dy="3" input="SourceAlpha"/>
      <feGaussianBlur stdDeviation="10" result="blur-9"/>
      <feFlood flood-opacity="0.271"/>
      <feComposite operator="in" in2="blur-9"/>
      <feComposite in="SourceGraphic"/>
    </filter>
    <filter id="Ellipse_161" x="506.397" y="316.039" width="22" height="22" filterUnits="userSpaceOnUse">
      <feOffset dy="3" input="SourceAlpha"/>
      <feGaussianBlur stdDeviation="2.5" result="blur-10"/>
      <feFlood flood-opacity="0.271"/>
      <feComposite operator="in" in2="blur-10"/>
      <feComposite in="SourceGraphic"/>
    </filter>
    <radialGradient id="radial-gradient" cx="213.628" cy="33.55" r="1360.266" gradientTransform="translate(180.078 32.723) scale(0.157 0.025)" gradientUnits="userSpaceOnUse">
      <stop offset="0" stop-color="#231f20"/>
      <stop offset="0.998" stop-color="#231f20" stop-opacity="0"/>
    </radialGradient>
    <radialGradient id="radial-gradient-2" cx="54.628" cy="16.55" r="421.927" gradientTransform="translate(38.078 15.901) scale(0.303 0.039)" xlink:href="#radial-gradient"/>
  </defs>
  <g id="API_graphics" data-name="API graphics" transform="translate(-247.103 -1312.461)">
    <path id="Path_184" data-name="Path 184" d="M722,1360.2c-63.939-13.484-114.7-3.1-156,139.5s-6,234.5,80,231.9,52-79.3,104-115.3,87.3-100.5,84-140.6S785.939,1373.684,722,1360.2Z" transform="matrix(0.966, 0.259, -0.259, 0.966, 415.677, -125.293)" fill="url(#linear-gradient)"/>
    <path id="Path_491" data-name="Path 491" d="M1278.632,1352.142c-212,162.236-350.181,169.208-401.122,31.643s8.212-259.362,136.351-262.795S1490.632,1189.906,1278.632,1352.142Z" transform="translate(-544 208.143)" fill="url(#linear-gradient-2)"/>
    <path id="Path_490" data-name="Path 490" d="M2458.823,1541.2c24.422,28.7,51.35,30,57.56,13.92s7.289-76.941-21.794-86.111C2461.459,1461.221,2434.4,1512.505,2458.823,1541.2Z" transform="translate(-1703.723 160.512)" fill="url(#linear-gradient-3)"/>
    <g transform="matrix(1, 0, 0, 1, 247.1, 1312.46)" filter="url(#Ellipse_9)">
      <circle id="Ellipse_9-2" data-name="Ellipse 9" cx="9" cy="9" r="9" transform="translate(389.9 58.54)" fill="#fff"/>
    </g>
    <g transform="matrix(1, 0, 0, 1, 247.1, 1312.46)" filter="url(#Ellipse_148)">
      <circle id="Ellipse_148-2" data-name="Ellipse 148" cx="5" cy="5" r="5" transform="translate(469.9 108.54)" fill="#061e3b"/>
    </g>
    <g transform="matrix(1, 0, 0, 1, 247.1, 1312.46)" filter="url(#Ellipse_149)">
      <circle id="Ellipse_149-2" data-name="Ellipse 149" cx="5" cy="5" r="5" transform="translate(179.9 350.54)" fill="#fff"/>
    </g>
    <g transform="matrix(1, 0, 0, 1, 247.1, 1312.46)" filter="url(#Ellipse_10)">
      <circle id="Ellipse_10-2" data-name="Ellipse 10" cx="9" cy="9" r="9" transform="translate(523.9 333.54)" fill="#fff"/>
    </g>
    <path id="Path_489" data-name="Path 489" d="M2507.65,1681.484c115.454,82.2,139.723,114.4,169.083,68.354s84.119-138.349,103.034-159.781-97.453-165.443-143.845-177.874C2513.094,1386,2392.2,1599.286,2507.65,1681.484Z" transform="translate(-2214 -12)" fill="url(#linear-gradient-3)"/>
    <g transform="matrix(1, 0, 0, 1, 247.1, 1312.46)" filter="url(#Path_5179)">
      <path id="Path_5179-2" data-name="Path 5179" d="M104.584,0c57.76,0,173.442,54.174,173.442,121S162.344,242,104.584,242,0,187.826,0,121,46.824,0,104.584,0Z" transform="translate(260.17 27) rotate(42)" fill="#fff"/>
    </g>
    <g id="Group_4435" data-name="Group 4435" transform="translate(-3 -18)">
      <g transform="matrix(1, 0, 0, 1, 250.1, 1330.46)" filter="url(#Ellipse_8)">
        <circle id="Ellipse_8-2" data-name="Ellipse 8" cx="33" cy="33" r="33" transform="translate(92.9 289.54)" fill="#fff"/>
      </g>
      <line id="Line_497" data-name="Line 497" x1="94" y2="95" transform="translate(375.5 1559.5)" fill="none" stroke="#242d3c" stroke-width="4"/>
      <circle id="Ellipse_146" data-name="Ellipse 146" cx="9.5" cy="9.5" r="9.5" transform="translate(367 1644)" fill="#242d3c"/>
      <g id="Ellipse_160" data-name="Ellipse 160" transform="translate(356 1633)" fill="none" stroke="#006bdc" stroke-width="1">
        <circle cx="20" cy="20" r="20" stroke="none"/>
        <circle cx="20" cy="20" r="19.5" fill="none"/>
      </g>
      <g transform="matrix(1, 0, 0, 1, 250.1, 1330.46)" filter="url(#Path_2304)">
        <path id="Path_2304-2" data-name="Path 2304" d="M5,0A5,5,0,1,1,0,5,5,5,0,0,1,5,0Z" transform="translate(64.9 288.54)" fill="#006bdc"/>
      </g>
      <g transform="matrix(1, 0, 0, 1, 250.1, 1330.46)" filter="url(#Ellipse_151)">
        <circle id="Ellipse_151-2" data-name="Ellipse 151" cx="9" cy="9" r="9" transform="translate(117.9 247.54)" fill="#0a4486"/>
      </g>
    </g>
    <g id="Group_4436" data-name="Group 4436" transform="translate(-16 16)">
      <g transform="matrix(1, 0, 0, 1, 263.1, 1296.46)" filter="url(#Ellipse_7)">
        <circle id="Ellipse_7-2" data-name="Ellipse 7" cx="19" cy="19" r="19" transform="translate(372.9 88.54)" fill="#fff"/>
      </g>
      <path id="Path_2299" data-name="Path 2299" d="M7,0A7,7,0,1,1,0,7,7,7,0,0,1,7,0Z" transform="translate(648 1397)" fill="#242d3c"/>
      <path id="Path_6035" data-name="Path 6035" d="M94,0,16.218,77.62" transform="translate(560.5 1404.5)" fill="none" stroke="#242d3c" stroke-width="4"/>
      <g id="Path_2298" data-name="Path 2298" transform="translate(643 1392)" fill="none">
        <path d="M12.5,0A12.5,12.5,0,1,1,0,12.5,12.5,12.5,0,0,1,12.5,0Z" stroke="none"/>
        <path d="M 12.5 1 C 9.428239822387695 1 6.54033088684082 2.196210861206055 4.368270874023438 4.368270874023438 C 2.196210861206055 6.54033088684082 1 9.428239822387695 1 12.5 C 1 15.5717601776123 2.196210861206055 18.45967102050781 4.368270874023438 20.63172912597656 C 6.54033088684082 22.80379104614258 9.428239822387695 24 12.5 24 C 15.5717601776123 24 18.45967102050781 22.80379104614258 20.63172912597656 20.63172912597656 C 22.80379104614258 18.45967102050781 24 15.5717601776123 24 12.5 C 24 9.428239822387695 22.80379104614258 6.54033088684082 20.63172912597656 4.368270874023438 C 18.45967102050781 2.196210861206055 15.5717601776123 1 12.5 1 M 12.5 0 C 19.40356063842773 0 25 5.596439361572266 25 12.5 C 25 19.40356063842773 19.40356063842773 25 12.5 25 C 5.596439361572266 25 0 19.40356063842773 0 12.5 C 0 5.596439361572266 5.596439361572266 0 12.5 0 Z" stroke="none" fill="#006bdc"/>
      </g>
    </g>
    <g transform="matrix(1, 0, 0, 1, 247.1, 1312.46)" filter="url(#Ellipse_161)">
      <circle id="Ellipse_161-2" data-name="Ellipse 161" cx="3.5" cy="3.5" r="3.5" transform="translate(513.9 320.54)" fill="#0a4486"/>
    </g>
    <text id="API" transform="translate(462 1545)" fill="#061e3b" font-size="70" font-family="SegoeUI, Segoe UI"><tspan x="0" y="0">API</tspan></text>
    <g id="Group_2484" data-name="Group 2484">
      <g id="Group_2482" data-name="Group 2482" transform="matrix(1, -0.017, 0.017, 1, 334.244, 1473.063)">
        <path id="Path_3836" data-name="Path 3836" d="M1.338,2.694a1.339,1.339,0,0,1,0-2.679L16.6,0h0a1.338,1.338,0,0,1,0,2.676L1.341,2.694Z" transform="translate(0 7.627)" fill="#fff"/>
        <path id="Path_3837" data-name="Path 3837" d="M1.356,17.944A1.342,1.342,0,0,1,.018,16.607L0,1.341A1.341,1.341,0,0,1,1.338,0h0A1.338,1.338,0,0,1,2.676,1.338L2.694,16.6a1.34,1.34,0,0,1-1.335,1.341Z" transform="translate(7.624 0)" fill="#fff"/>
      </g>
    </g>
    <path id="Path_4137" data-name="Path 4137" d="M14.632,29.27,0,14.632,14.632,0,29.27,14.632ZM5.352,14.632l9.28,9.285,9.285-9.285-9.285-9.28Z" transform="matrix(1, -0.017, 0.017, 1, 677.416, 1520.421)" fill="#fff"/>
    <g id="Group_2483" data-name="Group 2483" transform="matrix(1, -0.017, 0.017, 1, 603.948, 1683.625)">
      <path id="Path_3838" data-name="Path 3838" d="M1.187,2.389a1.186,1.186,0,0,1,0-2.373L12.317,0h0a1.188,1.188,0,1,1,0,2.376l-11.13.013Z" transform="translate(0 5.558)" fill="#7caaeb"/>
      <path id="Path_3839" data-name="Path 3839" d="M1.2,13.506A1.187,1.187,0,0,1,.016,12.319L0,1.189A1.187,1.187,0,0,1,1.186,0h0A1.189,1.189,0,0,1,2.376,1.186l.013,11.13a1.187,1.187,0,0,1-1.184,1.189Z" transform="translate(5.556 0)" fill="#7caaeb"/>
    </g>
    <g id="Group_287" data-name="Group 287" transform="translate(551.346 1543.335)">
      <g id="Group_286" data-name="Group 286" transform="translate(0 0)">
        <path id="Path_183" data-name="Path 183" d="M583.143,906.366a9.473,9.473,0,1,1,9.474-9.474A9.484,9.484,0,0,1,583.143,906.366Zm0-13.375a3.9,3.9,0,1,0,3.9,3.9A3.906,3.906,0,0,0,583.143,892.992Z" transform="translate(-573.671 -887.421)" fill="#006bdc"/>
      </g>
    </g>
    <g id="Group_4434" data-name="Group 4434" transform="translate(458.346 1488)">
      <g id="Group_286-2" data-name="Group 286" transform="translate(0 0)">
        <path id="Path_183-2" data-name="Path 183" d="M577.811,895.7a4.14,4.14,0,1,1,4.14-4.14A4.145,4.145,0,0,1,577.811,895.7Zm0-5.845a1.7,1.7,0,1,0,1.7,1.7A1.707,1.707,0,0,0,577.811,889.856Z" transform="translate(-573.671 -887.421)" fill="#006bdc"/>
      </g>
    </g>
    <ellipse id="Ellipse_271" data-name="Ellipse 271" cx="213.628" cy="33.55" rx="213.628" ry="33.55" transform="translate(294.567 1763.74)" opacity="0.148" fill="url(#radial-gradient)"/>
    <ellipse id="Ellipse_272" data-name="Ellipse 272" cx="54.628" cy="16.55" rx="54.628" ry="16.55" transform="translate(742.567 1763.74)" opacity="0.1" fill="url(#radial-gradient-2)"/>
    <g id="Group_4443" data-name="Group 4443" transform="translate(145 -51)">
      <g id="Group_2482-2" data-name="Group 2482" transform="matrix(1, -0.017, 0.017, 1, 334.244, 1473.063)">
        <path id="Path_3836-2" data-name="Path 3836" d="M1.338,2.694a1.339,1.339,0,0,1,0-2.679L16.6,0h0a1.338,1.338,0,0,1,0,2.676L1.341,2.694Z" transform="translate(0 7.627)" fill="#dae343"/>
        <path id="Path_3837-2" data-name="Path 3837" d="M1.356,17.944A1.342,1.342,0,0,1,.018,16.607L0,1.341A1.341,1.341,0,0,1,1.338,0h0A1.338,1.338,0,0,1,2.676,1.338L2.694,16.6a1.34,1.34,0,0,1-1.335,1.341Z" transform="translate(7.624 0)" fill="#dae343"/>
      </g>
    </g>
  </g>
</svg>
