<svg xmlns="http://www.w3.org/2000/svg" width="214.683" height="20.569" viewBox="0 0 214.683 20.569"><g transform="translate(107.341 10.285)"><g transform="translate(-107.341 -10.285)"><g transform="translate(0 0.1)"><path d="M108.772,1.831c.2-.7.5-1.331,1.331-1.331s1.165.666,1.365,1.331l5.059,17.707c.166.632-.533,1.3-1.265,1.3a1.589,1.589,0,0,1-1.4-1.3L112.9,16.41h-5.592l-1,3.129a1.525,1.525,0,0,1-1.4,1.3c-.8,0-1.431-.666-1.265-1.3Zm1.365,4.859h-.067l-2.03,7.089h4.094Z" transform="translate(-69.131 -0.433)" fill="#2a7de1"/><path d="M314.624,18.24h1.9c.832,0,1.731.2,1.731,1.265s-1,1.265-1.731,1.265h-6.391c-.732,0-1.731-.166-1.731-1.265s.9-1.265,1.731-1.265h2V2.83h-2c-.732,0-1.731-.166-1.731-1.265S309.3.3,310.131.3h2.629c1.431,0,1.864.266,1.864,1.764Z" transform="translate(-205.752 -0.3)" fill="#2a7de1"/><path d="M515.581,18.2a1.2,1.2,0,0,1,1.3,1.3,1.2,1.2,0,0,1-1.3,1.3h-8.987a2.563,2.563,0,0,1-2.6-2.629V13.172a2.944,2.944,0,0,1,1.032-2.53A3.077,3.077,0,0,1,504,8.113V3.087a2.563,2.563,0,0,1,2.6-2.6h8.987a1.2,1.2,0,0,1,1.3,1.3,1.2,1.2,0,0,1-1.3,1.3h-8.987V7.414c0,1.464.566,1.9,1.3,1.9h5.126a1.2,1.2,0,0,1,1.3,1.3,1.2,1.2,0,0,1-1.3,1.3h-5.092c-.732,0-1.3.433-1.3,1.9v4.327Z" transform="translate(-336.247 -0.424)" fill="#2a7de1"/><path d="M616.55.5a2.63,2.63,0,0,1,2.629,2.6V18.207a2.563,2.563,0,0,1-2.6,2.629h-7.689a2.563,2.563,0,0,1-2.6-2.629V3.1a2.629,2.629,0,0,1,2.6-2.6Zm0,17.74V3.1h-7.655V18.207Z" transform="translate(-404.497 -0.433)" fill="#2a7de1"/><path d="M7.755,14.1a1.2,1.2,0,0,1-1.3-1.3,1.2,1.2,0,0,1,1.3-1.3h5.159v5.126A3.888,3.888,0,0,1,8.72,20.727H4.227a3.95,3.95,0,0,1-3-1.032A4.072,4.072,0,0,1,0,16.5V9.977A5.375,5.375,0,0,1,1.365,6.149L4.427,2.188A4,4,0,0,1,8.088.391h3.528a1.2,1.2,0,0,1,1.3,1.3,1.2,1.2,0,0,1-1.3,1.3H8.454c-1.431,0-1.331-.033-2.2,1.065L3.428,7.747a5.035,5.035,0,0,0-.8,3.395v5.126c0,1.431.3,1.9,1.8,1.9H8.554c.932,0,1.731-.2,1.731-1.365V14.137Z" transform="translate(0 -0.358)" fill="#2a7de1"/></g><path d="M217.307,17.774a1.315,1.315,0,0,1,2.629,0v1.3a1.331,1.331,0,0,1-1.3,1.3h-8.787s-1.7.133-2.33-.566a3.258,3.258,0,0,1-.533-2.064V10.917l2.13-2.43a3.323,3.323,0,0,0,1.065-2.064V1.3a1.3,1.3,0,1,1,2.6,0V7.622c0,.832-.566,1.3-1.1,1.964l-2.13,2.563v5.625Z" transform="translate(-138.091 0)" fill="#2a7de1"/><path d="M410.907,17.774a1.331,1.331,0,0,1,2.629,0v1.3a1.331,1.331,0,0,1-1.331,1.3h-8.754s-1.7.133-2.33-.566a3.258,3.258,0,0,1-.533-2.064V10.917l2.13-2.43a3.323,3.323,0,0,0,1.065-2.064V1.3a1.3,1.3,0,1,1,2.6,0V7.622c0,.832-.566,1.3-1.1,1.964l-2.13,2.563v5.625Z" transform="translate(-267.253 0)" fill="#2a7de1"/></g></g></svg>