<svg xmlns="http://www.w3.org/2000/svg" width="483.755" height="368.956" viewBox="0 0 483.755 368.956">
  <g id="bg_elements" data-name="bg elements" transform="translate(-1470.486 -2639.044)">
    <g id="Group_2464" data-name="Group 2464" transform="matrix(1, -0.017, 0.017, 1, 1720.158, 2639.849)" opacity="0.153">
      <path id="Path_3836" data-name="Path 3836" d="M5.978,12.035a5.984,5.984,0,0,1,0-11.968L74.164,0h0a5.977,5.977,0,0,1,.014,11.954L5.99,12.035Z" transform="translate(0 34.073)" fill="#fff"/>
      <path id="Path_3837" data-name="Path 3837" d="M6.059,80.168A6,6,0,0,1,.082,74.191L0,5.991A5.99,5.99,0,0,1,5.978,0h0a5.978,5.978,0,0,1,5.976,5.977l.081,68.2a5.986,5.986,0,0,1-5.963,5.991Z" transform="translate(34.06 0)" fill="#fff"/>
    </g>
    <g id="Group_2465" data-name="Group 2465" transform="matrix(1, -0.017, 0.017, 1, 1469.997, 2701.101)" opacity="0.153">
      <path id="Path_3838" data-name="Path 3838" d="M5.977,12.035A5.977,5.977,0,0,1,5.964.081L62.047,0h0a5.984,5.984,0,1,1,0,11.968l-56.07.068Z" transform="translate(0 28.001)" fill="#dae343"/>
      <path id="Path_3839" data-name="Path 3839" d="M6.058,68.038A5.979,5.979,0,0,1,.081,62.061L0,5.991A5.981,5.981,0,0,1,5.977,0h0a5.99,5.99,0,0,1,5.991,5.977l.068,56.07a5.979,5.979,0,0,1-5.964,5.991Z" transform="translate(27.988 0)" fill="#dae343"/>
    </g>
    <g id="Group_2466" data-name="Group 2466" transform="matrix(1, -0.017, 0.017, 1, 1746.09, 2841.708)" opacity="0.153">
      <path id="Path_3857" data-name="Path 3857" d="M3.513,160.263A3.516,3.516,0,0,1,0,156.75V3.508a3.51,3.51,0,0,1,7.021,0V156.75A3.514,3.514,0,0,1,3.513,160.263Z" transform="translate(120.774 0.602)" fill="#03abf2"/>
      <path id="Path_3858" data-name="Path 3858" d="M4.6,160.491a3.508,3.508,0,0,1-1.939-6.436c.358-.239,36.3-24.785,34.466-76.287C35.205,23.253,3.352,7.326,1.992,6.676A3.509,3.509,0,0,1,5,.335c1.515.716,37.061,18.176,39.149,77.188,1.968,55.558-36,81.316-37.622,82.383A3.413,3.413,0,0,1,4.6,160.491Z" transform="translate(123.679 0.363)" fill="#03abf2"/>
      <path id="Path_3859" data-name="Path 3859" d="M3.516,57.293a3.366,3.366,0,0,1-.549-.042A3.51,3.51,0,0,1,.044,53.243C4.416,25.375,32.923,1.783,34.134.793a3.508,3.508,0,0,1,4.444,5.428c-.275.227-27.648,22.906-31.6,48.108A3.511,3.511,0,0,1,3.516,57.293Z" transform="translate(80.18 0.365)" fill="#03abf2"/>
      <path id="Path_3860" data-name="Path 3860" d="M111.648,7.021H3.508A3.51,3.51,0,0,1,3.508,0h108.14a3.51,3.51,0,0,1,0,7.021Z" transform="translate(84.555 50.423)" fill="#03abf2"/>
      <path id="Path_3861" data-name="Path 3861" d="M82.974,7.021H3.513A3.51,3.51,0,1,1,3.513,0H82.974a3.51,3.51,0,0,1,0,7.021Z" transform="translate(111.558 101.668)" fill="#03abf2"/>
      <path id="Path_3862" data-name="Path 3862" d="M52.039,104.072a52.036,52.036,0,1,1,52.039-52.033A52.1,52.1,0,0,1,52.039,104.072Zm0-97.051A45.018,45.018,0,1,0,97.057,52.039,45.065,45.065,0,0,0,52.039,7.021Z" transform="translate(0 62.245)" fill="#03abf2"/>
      <path id="Path_3863" data-name="Path 3863" d="M17.944,38.85a3.5,3.5,0,0,1-2.821-1.426L.687,17.853A3.508,3.508,0,1,1,6.33,13.683l11.3,15.33,16.285-27.3a3.511,3.511,0,1,1,6.03,3.6L20.962,37.138a3.5,3.5,0,0,1-2.845,1.706Z" transform="translate(31.387 96.139)" fill="#03abf2"/>
      <path id="Path_3864" data-name="Path 3864" d="M72.343,162.1a81.716,81.716,0,0,1-19.535-2.368,3.508,3.508,0,1,1,1.682-6.812,74.1,74.1,0,0,0,91.879-71.873A74.044,74.044,0,0,0,6.62,46.927,3.507,3.507,0,1,1,.4,43.688,81.056,81.056,0,1,1,72.343,162.1Z" transform="translate(51.963 0)" fill="#03abf2"/>
    </g>
    <path id="Path_4135" data-name="Path 4135" d="M37.569,75.153,0,37.57,37.569,0,75.153,37.57ZM13.743,37.57,37.569,61.41,61.41,37.57,37.569,13.743Z" transform="matrix(1, -0.017, 0.017, 1, 1552.615, 2839.545)" fill="#fff" opacity="0.153"/>
  </g>
</svg>
