<?xml version="1.0" encoding="UTF-8"?>
<svg width="175px" height="50px" viewBox="0 0 175 50" version="1.1" xmlns="http://www.w3.org/2000/svg" xmlns:xlink="http://www.w3.org/1999/xlink">
    <!-- Generator: Sketch 47.1 (45422) - http://www.bohemiancoding.com/sketch -->
    <title>varo-logo-white</title>
    <desc>Created with Sketch.</desc>
    <defs></defs>
    <g id="Page-1" stroke="none" stroke-width="1" fill="none" fill-rule="evenodd">
        <g id="Varo-marketing-site-(V2)---Press" transform="translate(-629.000000, -3333.000000)" fill="#FFFFFF">
            <g id="varo-logo-white" transform="translate(566.000000, 3248.000000)">
                <g transform="translate(63.000000, 85.000000)" id="Shape">
                    <path d="M73.9275862,43 L47.0724138,43 C45.3655172,43 44,44.4 44,46.15 L44,46.85 C44,48.6 45.3655172,50 47.0724138,50 L73.9275862,50 C75.6344828,50 77,48.6 77,46.85 L77,46.15 C77,44.4233333 75.6117241,43 73.9275862,43 Z"></path>
                    <path d="M65.9337917,2.28982673 C65.8659677,2.17758032 65.7981437,2.06533391 65.7077117,1.9530875 C64.7355678,0.381637788 64.0347199,0 61.977392,0 C59.7392002,0 59.1287842,0.426536351 58.0209923,2.33472529 L58.0209923,2.33472529 L39.3920015,35.6943578 C38.5555056,37.2209089 39.0980976,39.1290979 40.6354415,39.9597213 L41.8110574,40.6107505 C43.3484013,41.4413739 45.2700811,40.9025911 46.1065771,39.37604 L51.1933767,30.2616316 L72.8066233,30.2616316 L77.8934229,39.37604 C78.7299189,40.9025911 80.6742067,41.4413739 82.1889426,40.6107505 L83.3645585,39.9597213 C84.9019024,39.1290979 85.4444944,37.1984597 84.6079985,35.6943578 L65.9337917,2.28982673 Z M55.2402085,23.0554122 L62,10.9552494 L68.7597915,23.0554122 L55.2402085,23.0554122 Z"></path>
                    <polygon points="62 0 62 0 62.05 0"></polygon>
                    <path d="M45.6078057,5.36124799 C46.444713,3.83803294 45.9018542,1.93401414 44.3637544,1.10520595 L43.0744648,0.410799093 C41.536365,-0.418009093 39.6137402,0.119596217 38.7768329,1.64281126 L22.9886904,29.8446898 L7.2231671,1.62041104 C6.38625984,0.0971959959 4.44101592,-0.440409314 2.9255352,0.388398872 L1.63624563,1.10520595 C0.098145791,1.93401414 -0.444712975,3.86043317 0.39219429,5.36124799 L19.0529644,38.7151774 C19.1208217,38.8271785 19.1886791,38.9391796 19.2791555,39.0511808 C20.2517775,40.6191962 20.9529701,41 23.0113096,41 C25.250602,41 25.8613181,40.5743958 26.9696547,38.670377 L26.9696547,38.670377 L45.6078057,5.36124799 Z"></path>
                    <path d="M23.0222222,41 C23.0222222,41 23.0222222,41 23.0222222,41 C23.0222222,41 22.9722222,41 23.0222222,41 L23.0222222,41 Z"></path>
                    <path d="M172.912621,11.6984898 C172.286408,10.3937433 170.941208,9.42071197 169.340885,9.42071197 C167.20712,9.42071197 165.467638,11.079288 165.467638,13.113808 C165.467638,13.7108954 165.653182,14.2195254 165.885113,14.7944984 C166.766451,16.5194175 167.253506,18.4433657 167.253506,20.5 C167.253506,27.7313916 161.084142,33.6359223 153.476807,33.6359223 C145.869471,33.6359223 139.700108,27.7535059 139.700108,20.5 C139.700108,13.2464941 145.869471,7.36407767 153.476807,7.36407767 C155.633765,7.36407767 157.69795,7.85059331 159.530205,8.71305286 C160.156419,8.97842503 160.713053,9.15533981 161.385653,9.15533981 C163.519417,9.15533981 165.2589,7.49676375 165.2589,5.4622438 C165.2589,4.06903991 164.447141,2.85275081 163.264293,2.21143474 C160.31877,0.818230852 157.002157,0 153.5,0 C141.648328,0 132,9.1995685 132,20.5 C132,31.8004315 141.648328,41 153.5,41 C165.351672,41 175,31.8004315 175,20.5 C175,17.3597627 174.234628,14.3743258 172.912621,11.6984898 Z"></path>
                    <path d="M126,15.2318928 C126,7.10226088 119.562312,0.42434892 111.498495,0.0223341537 C111.387116,0.0223341537 111.298013,0 111.186635,0 L110.874774,0 C110.830223,0 110.763396,0 110.718844,0 L110.718844,0 L93.5219747,0 C93.5219747,0 93.499699,0 93.499699,0 L92.0072246,0 C90.3365443,0 89,1.34004922 89,3.01511075 L89,37.6553831 C89,39.3304447 90.3365443,40.6704939 92.0072246,40.6704939 L93.499699,40.6704939 C95.1703793,40.6704939 96.5069235,39.3304447 96.5069235,37.6553831 L96.5069235,30.4414515 L113.547863,30.4414515 C113.570138,30.4414515 113.570138,30.4414515 113.592414,30.4414515 L113.92655,30.4414515 L118.89404,39.4421154 C119.695966,40.8938354 121.522577,41.4298551 122.992775,40.6258256 L124.17339,39.9781351 C125.621312,39.1741056 126.15593,37.342705 125.354004,35.8686509 L120.453341,26.9796577 C123.816978,24.1878885 126,19.9667334 126,15.2318928 Z M110.696568,22.9148417 L110.696568,22.9148417 L96.4846478,22.9148417 L96.4846478,7.50427565 L110.763396,7.50427565 C115.018061,7.54894395 118.470801,10.9884036 118.470801,15.2095587 C118.493076,19.475382 114.995786,22.9148417 110.696568,22.9148417 Z"></path>
                    <path d="M170.704918,40 L169.598361,40 L169.401639,40 L168.295082,40 C168.147541,40 168,40.1219512 168,40.2926829 L168,40.4878049 C168,40.6341463 168.122951,40.7804878 168.295082,40.7804878 L169.106557,40.7804878 L169.106557,42.7073171 C169.106557,42.8536585 169.229508,43 169.401639,43 L169.598361,43 C169.745902,43 169.893443,42.8780488 169.893443,42.7073171 L169.893443,40.7804878 L170.704918,40.7804878 C170.852459,40.7804878 171,40.6585366 171,40.4878049 L171,40.2926829 C170.97541,40.1219512 170.852459,40 170.704918,40 Z"></path>
                    <path d="M174.731343,40 L174.619403,40 C174.529851,40 174.440299,40.0491803 174.373134,40.1229508 C174.373134,40.1229508 174.373134,40.1229508 174.373134,40.1229508 L173.477612,41.1065574 L172.58209,40.1229508 C172.58209,40.1229508 172.58209,40.1229508 172.58209,40.1229508 C172.514925,40.0491803 172.425373,40 172.335821,40 L172.223881,40 C172.089552,40 172,40.1229508 172,40.2459016 L172,42.7540984 C172,42.9016393 172.11194,43 172.223881,43 L172.470149,43 C172.604478,43 172.69403,42.8770492 172.69403,42.7540984 L172.69403,41.3032787 L173.320896,41.9918033 C173.365672,42.0409836 173.432836,42.0655738 173.5,42.0655738 C173.567164,42.0655738 173.634328,42.0409836 173.679104,41.9918033 L174.30597,41.3032787 L174.30597,42.7540984 C174.30597,42.9016393 174.41791,43 174.529851,43 L174.776119,43 C174.910448,43 175,42.8770492 175,42.7540984 L175,40.2459016 C174.955224,40.0983607 174.843284,40 174.731343,40 Z"></path>
                </g>
            </g>
        </g>
    </g>
</svg>