<svg xmlns="http://www.w3.org/2000/svg" width="278.863" height="26.684" viewBox="0 0 278.863 26.684">
  <defs>
    <style>
      .cls-1 {
        fill: #061e3b;
      }
    </style>
  </defs>
  <g id="Logo" transform="translate(-23.568 -20.576)">
    <g id="Group_1036" data-name="Group 1036" transform="translate(23.568 20.576)">
      <g id="Group_1033" data-name="Group 1033" transform="translate(0 0.146)">
        <path id="Path_2341" data-name="Path 2341" class="cls-1" d="M133.915,22.78c.27-.915.646-1.736,1.729-1.736,1.12,0,1.533.856,1.767,1.736l6.556,22.985c.234.816-.681,1.7-1.633,1.7a2.027,2.027,0,0,1-1.834-1.7l-1.253-4.074h-7.234l-1.292,4.074a2.02,2.02,0,0,1-1.829,1.7c-.954,0-1.87-.884-1.633-1.7Zm1.764,6.315h-.068l-2.651,9.2h5.333Z" transform="translate(-82.405 -20.988)"/>
        <path id="Path_2342" data-name="Path 2342" class="cls-1" d="M340.093,44.191h2.451c1.08,0,2.239.241,2.239,1.633,0,1.427-1.292,1.627-2.239,1.627h-8.287c-.952,0-2.244-.2-2.244-1.627,0-1.392,1.159-1.633,2.244-1.633h2.579V24.178h-2.579c-.952,0-2.244-.21-2.244-1.635,0-1.394,1.159-1.629,2.244-1.629h3.427c1.869,0,2.409.336,2.409,2.275Z" transform="translate(-198.656 -20.914)"/>
        <path id="Path_2343" data-name="Path 2343" class="cls-1" d="M542.608,44.07a1.7,1.7,0,1,1,0,3.394H530.929a3.319,3.319,0,0,1-3.391-3.394V37.551a3.941,3.941,0,0,1,1.325-3.294,3.943,3.943,0,0,1-1.325-3.291V24.443a3.322,3.322,0,0,1,3.391-3.4h11.678a1.574,1.574,0,0,1,1.707,1.705,1.567,1.567,0,0,1-1.707,1.694H530.929V30.08c0,1.9.752,2.48,1.706,2.48h6.649a1.7,1.7,0,1,1,0,3.392h-6.649c-.954,0-1.706.582-1.706,2.481V44.07Z" transform="translate(-309.645 -20.988)"/>
        <path id="Path_2344" data-name="Path 2344" class="cls-1" d="M643.15,21.044a3.407,3.407,0,0,1,3.391,3.4V44.07a3.336,3.336,0,0,1-3.391,3.394h-9.986a3.337,3.337,0,0,1-3.392-3.394V24.443a3.408,3.408,0,0,1,3.392-3.4Zm0,23.026V24.443h-9.986V44.07Z" transform="translate(-367.677 -20.988)"/>
        <g id="Group_1032" data-name="Group 1032" transform="translate(0 0.056)">
          <path id="Path_2345" data-name="Path 2345" class="cls-1" d="M33.65,38.841a1.7,1.7,0,0,1,0-3.4h6.689v6.693a5.053,5.053,0,0,1-5.432,5.331H29.068A5.163,5.163,0,0,1,25.16,46.1a4.9,4.9,0,0,1-1.592-4.173V33.445a6.934,6.934,0,0,1,1.761-4.962l4.007-5.126a5.193,5.193,0,0,1,4.755-2.314h4.551a1.57,1.57,0,0,1,1.7,1.705,1.563,1.563,0,0,1-1.7,1.694H34.564c-1.869,0-1.728-.036-2.847,1.388l-3.7,4.724c-1.054,1.323-1.054,2.752-1.054,4.415v6.655c0,1.865.4,2.445,2.343,2.445h5.4c1.226,0,2.242-.275,2.242-1.771V38.841Z" transform="translate(-23.568 -21.044)"/>
        </g>
      </g>
      <g id="Group_1034" data-name="Group 1034" transform="translate(89.485)">
        <path id="Path_2346" data-name="Path 2346" class="cls-1" d="M243.967,43.674a1.7,1.7,0,0,1,3.4,0V45.38a1.72,1.72,0,0,1-1.7,1.7h-11.4s-2.219.167-3.021-.72a4.757,4.757,0,0,1-.7-2.661l.011-8.934,2.767-3.178a4.153,4.153,0,0,0,1.376-2.7V22.28a1.7,1.7,0,1,1,3.408,0v8.211c.017,1.1-.726,1.679-1.416,2.541l-2.768,3.321.021,7.32Z" transform="translate(-230.54 -20.576)"/>
      </g>
      <g id="Group_1035" data-name="Group 1035" transform="translate(173.187)">
        <path id="Path_2347" data-name="Path 2347" class="cls-1" d="M437.55,43.674a1.708,1.708,0,0,1,3.417,0V45.38a1.724,1.724,0,0,1-1.708,1.7h-11.4s-2.219.167-3.023-.72a4.731,4.731,0,0,1-.7-2.661l.009-8.934,2.775-3.178a4.2,4.2,0,0,0,1.378-2.7V22.28a1.7,1.7,0,1,1,3.4,0v8.211c.019,1.1-.719,1.679-1.416,2.541l-2.768,3.321.031,7.32Z" transform="translate(-424.135 -20.576)"/>
      </g>
    </g>
  </g>
</svg>
