<svg xmlns="http://www.w3.org/2000/svg" width="35.604" height="25.107" viewBox="0 0 35.604 25.107">
  <g id="Group_1093" data-name="Group 1093" transform="translate(271.027 -1828.83)">
    <path id="Path_2352" data-name="Path 2352" d="M-252.59,1862.811h-18.436v-18.436h1.318v17.118h17.118Z" transform="translate(0 -11.076)" fill="#0a4486"/>
    <path id="Path_2353" data-name="Path 2353" d="M-231.061,1853.937l-6.012-6.012h-20.7v-19.1h31.793v19.1h-5.079Zm-25.4-7.33h19.93l4.147,4.147v-4.147h5.079v-16.458h-29.156Z" transform="translate(-9.442 0)" fill="#0a4486"/>
    <rect id="Rectangle_714" data-name="Rectangle 714" width="25.395" height="12.698" transform="translate(-264.018 1832.029)" fill="#006bdc"/>
    <g id="Group_1092" data-name="Group 1092" transform="translate(-258.939 1836.586)">
      <path id="Path_2354" data-name="Path 2354" d="M-227.1,1855.809l.584,1.181,1.3.188-.942.918.223,1.3-1.166-.611-1.163.611.222-1.3-.941-.918,1.3-.188Z" transform="translate(228.982 -1855.809)" fill="#fff"/>
      <path id="Path_2355" data-name="Path 2355" d="M-207.149,1855.809l.581,1.181,1.3.188-.939.918.223,1.3-1.166-.611-1.164.611.222-1.3-.942-.918,1.3-.188Z" transform="translate(214.767 -1855.809)" fill="#fff"/>
      <path id="Path_2356" data-name="Path 2356" d="M-187.2,1855.809l.58,1.181,1.3.188-.943.918.224,1.3-1.164-.611-1.166.611.221-1.3-.937-.918,1.3-.188Z" transform="translate(200.551 -1855.809)" fill="#fff"/>
    </g>
  </g>
</svg>
